<svg
                      viewBox="0 0 24 24"
                      xmlns="http://www.w3.org/2000/svg"
                      fill="none"
                    >
                      <style>
                        @keyframes rotate {
                          0% {
                            transform: rotateZ(0);
                          }
                          to {
                            transform: rotateZ(360deg);
                          }
                        }
                      </style>
                      <g
                        style="
                          animation: rotate 3s
                            cubic-bezier(0.7, -0.03, 0.26, 1.05) both infinite;
                          transform-origin: center center;
                        "
                        stroke-linecap="round"
                        stroke-linejoin="round"
                        stroke-width="1.5"
                      >
                        <path
                          stroke="#0A0A30"
                          d="M5.262 15.329l.486.842a1.49 1.49 0 002.035.55 1.486 1.486 0 012.036.529c.128.216.197.463.2.714a1.493 1.493 0 001.493 1.536h.979a1.486 1.486 0 001.485-1.493 1.493 1.493 0 011.493-1.471c.252.002.498.071.714.2a1.493 1.493 0 002.036-.55l.521-.857a1.493 1.493 0 00-.542-2.036 1.493 1.493 0 010-2.586c.71-.41.952-1.318.543-2.028l-.493-.85a1.493 1.493 0 00-2.036-.579 1.479 1.479 0 01-2.029-.543 1.428 1.428 0 01-.2-.714c0-.825-.668-1.493-1.492-1.493h-.98c-.82 0-1.488.664-1.492 1.486a1.485 1.485 0 01-1.493 1.493 1.521 1.521 0 01-.714-.2 1.493 1.493 0 00-2.036.542l-.514.858a1.486 1.486 0 00.543 2.035 1.486 1.486 0 01.543 2.036c-.13.226-.317.413-.543.543a1.493 1.493 0 00-.543 2.028v.008z"
                          clip-rule="evenodd"
                        />
                        <path
                          stroke="#265BFF"
                          d="M12.044 10.147a1.853 1.853 0 100 3.706 1.853 1.853 0 000-3.706z"
                        />
                      </g>
                    </svg>