 <svg viewBox="0 0 24 24" xmlns="http://www.w3.org/2000/svg" fill="none"><style>@keyframes jello{0%,to{transform:scale3d(1,1,1)}30%{transform:scale3d(1.25,.75,1)}40%{transform:scale3d(.75,1.25,1)}50%{transform:scale3d(1.15,.85,1)}65%{transform:scale3d(.95,1.05,1)}75%{transform:scale3d(1.05,.95,1)}}</style><path stroke="#fff" stroke-width="1.5" d="M11.081 5.141c.347-.807 1.491-.807 1.838 0l1.274 2.97a1 1 0 00.828.601l3.218.295c.875.08 1.229 1.168.568 1.748l-2.43 2.13a1 1 0 00-.316.972l.714 3.152c.194.857-.732 1.53-1.487 1.08l-2.776-1.653a1 1 0 00-1.024 0l-2.776 1.653c-.755.45-1.681-.223-1.487-1.08l.715-3.152a1 1 0 00-.317-.973l-2.43-2.13c-.66-.579-.307-1.667.568-1.747l3.218-.295a1 1 0 00.828-.601l1.274-2.97z" style="animation:jello 1s both infinite cubic-bezier(.69,.34,.09,.6);transform-origin:center"/></svg>